<?xml version="1.0" encoding="utf-8"?>
<!-- Generator: Adobe Illustrator 22.0.1, SVG Export Plug-In . SVG Version: 6.00 Build 0)  -->
<svg version="1.1" id="Layer_1" xmlns="http://www.w3.org/2000/svg" xmlns:xlink="http://www.w3.org/1999/xlink" x="0px" y="0px"
	 viewBox="0 0 883.4 882.5" style="enable-background:new 0 0 883.4 882.5;" xml:space="preserve">
<style type="text/css">
	.st0{fill:#FFFFFF;}
</style>
<g>
	<path class="st0" d="M470.6,868.1c-1,0-1.9,0-2.9,0c-133.2,0-266.5,0-399.6,0c-19.4,0-33.9-8.6-43.1-25.8c-3.5-6.4-4.8-13.4-5-20.6
		c0-0.6,0-1.2,0-1.7c0-249.4,0-498.6,0-748c0-13.1,4-24.5,13.2-33.9c9-9.3,20.1-13.9,33-14.2c0.5,0,1.1,0,1.5,0
		c249.6,0,499.4,0,749,0c22.1,0,40.4,13.8,45.9,34.9c1.2,4.3,1.5,8.7,1.5,13.2c0,69.8,0,139.5,0,209.2c0,179.6,0,359.3,0,538.9
		c0,20.4-11.2,37.4-29.5,44.7c-5.9,2.3-11.9,3.3-18.2,3.3c-16,0-31.9,0-47.9,0c-54.5,0-108.9,0-163.4,0c-1,0-1.9,0-2.9,0
		c-0.3-0.2-0.4-0.4-0.6-0.6c-0.4-1-0.3-2-0.3-3c0-106.4,0-212.7,0-319.2c0-0.7,0-1.3,0-1.9c0.2-2,0.8-2.7,2.9-2.9c1.1-0.1,2,0,3.1,0
		c33.1,0,66.2,0,99.3,0c5.5,0,4.7,0.4,5.4-4.7c4.4-34.1,8.8-68.2,13.3-102.3c0.7-5.3,1.2-10.6,2-15.9c0.4-2.8,0.2-3-2.6-3
		c-15.6,0-31,0-46.6,0c-24,0-47.9,0-72,0c-4.5,0-4.7-0.2-4.7-4.6c0-26-0.2-52,0.1-78c0.1-10.2,0.8-20.4,4.1-30.2
		c4.1-12.3,12.1-20.9,23.9-25.9c8.2-3.5,16.7-5.1,25.5-5.5c24.2-1.1,48.5-0.2,72.7-0.5c0.8,0,1.4,0,2.2,0c1.4,0.1,2.2-0.6,2.1-2
		c0-0.6,0-1.2,0-1.7c0-35,0-70,0-104.9c0-4-0.1-4-4-4.4c-10.5-1.1-21-2-31.5-2.5c-7.9-0.4-15.9-0.8-23.7-1.1c-15-0.7-30-1.2-45-0.7
		c-29.4,0.9-57.6,7-83.3,21.9c-22.7,13.1-40.2,31.3-52.6,54.5c-10.8,20.2-16.5,41.8-19,64.4c-0.9,7.7-1.1,15.4-1.3,23.1
		c-0.9,31.3-0.1,62.7-0.4,94c0,0.5,0,1.1,0,1.5c-0.1,2.3-0.6,2.8-2.9,3c-1,0.1-1.9,0-2.9,0c-33.3,0-66.8,0-100.1,0
		c-3.9,0-3.9,0-3.9,3.8c0,39.4,0,78.7,0,118.1c0,4,0,4,4.1,4c33.6,0,67.4,0,101,0c1.4,0,2.9-0.4,4.1,0.8c0.7,1.3,0.4,2.7,0.4,4.1
		c0,73.3,0,146.6,0,220c0,33.1,0,66.2,0,99.3C471.2,865.6,471.6,867.1,470.6,868.1z"/>
</g>
</svg>
