<?xml version="1.0" encoding="utf-8"?>
<!-- Generator: Adobe Illustrator 22.0.1, SVG Export Plug-In . SVG Version: 6.00 Build 0)  -->
<svg version="1.1" id="Layer_1" xmlns="http://www.w3.org/2000/svg" xmlns:xlink="http://www.w3.org/1999/xlink" x="0px" y="0px"
	 viewBox="0 0 883.4 882.5" style="enable-background:new 0 0 883.4 882.5;" xml:space="preserve">
<style type="text/css">
	.st0{fill:#FFFFFF;}
</style>
<g>
	<path class="st0" d="M0,70.5V812c0,38.9,31.6,70.5,70.5,70.5h742.4c38.9,0,70.5-31.6,70.5-70.5V70.5c0-38.9-31.6-70.5-70.5-70.5
		H70.5C31.6,0,0,31.6,0,70.5z M277,784.4c0,4.6-0.9,9-1.5,13.6c-43.3,0-86.6,0-129.8,0c-0.3-4-0.9-8.1-0.9-12.3
		c0-125.2,0-250.1,0-375.3c0-3.1,0.3-6.2,0.6-10.5c43.6,0,86.8,0,131.1,0c0.3,4.6,0.6,9.2,0.6,13.9C277,537.4,277,661.1,277,784.4z
		 M234,341.1c-44.2,10.8-73.9-4.4-97.7-50.1c0-10.2,0-20.7,0-30.9c8.1-21,19.1-39.6,41.7-47.6c8.7-3.1,17.3-5.3,26.3-8.1
		c4,0,8.3,0,12.3,0c5,1.3,9.9,2.4,14.9,3.7c32.4,7.1,53.5,33.1,53.7,66.4C285.6,307.1,265.8,332.8,234,341.1z M754.8,798.6
		c-43.3,0-86.6,0-129.8,0c-0.9-5.5-2.4-10.8-2.4-16.4c-0.3-65.8,0.6-131.7-0.6-197.5c-0.3-18.2-4-36.8-9.6-54.1
		c-6.8-21-23.5-33.1-46-35.5c-46-5.3-82.8,26.3-83.1,73.6c-0.6,76.7-0.3,153.3-0.3,230c-43.6-0.6-86.8-0.6-130.2-0.6
		c-0.9-3.7-2.4-7.7-2.4-11.4c0-127.1,0-254.4,0-381.4c0-1.5,0.6-2.8,0.9-5.3c43.3,0,86.2,0,131.1,0c0,16.4,0,32.8,0,51.3
		c3.1-1.8,5-2.2,5.5-3.1c37.7-54.8,91.5-67.1,152.7-54.4c60.6,12.7,93.4,54.1,107.9,112.2c2.4,9.9,4.4,20.1,6.5,30
		C754.8,623.4,754.8,711.1,754.8,798.6z"/>
</g>
</svg>
